<?xml version="1.0" standalone="no"?>
<svg xmlns="http://www.w3.org/2000/svg" xmlns:xlink="http://www.w3.org/1999/xlink" width="712pt" height="1375pt" viewBox="0.00 0.00 712.35 1375.00">
<g id="graph0" class="graph" transform="translate(4,1371) scale(1)" data-name="G">

<polygon fill="#2e3e56" stroke="none" points="-4,4 -4,-1371 708.35,-1371 708.35,4 -4,4" style=""/>
<g id="clust1" class="cluster" data-name="clusterERC721">

<path fill="#445773" stroke="#445773" d="M20,-93C20,-93 684.35,-93 684.35,-93 690.35,-93 696.35,-99 696.35,-105 696.35,-105 696.35,-1210 696.35,-1210 696.35,-1216 690.35,-1222 684.35,-1222 684.35,-1222 20,-1222 20,-1222 14,-1222 8,-1216 8,-1210 8,-1210 8,-105 8,-105 8,-99 14,-93 20,-93" style=""/>
<text text-anchor="middle" x="352.17" y="-1205.4" font-family="Times,serif" font-size="14.00" fill="#f0f0f0" style="">ERC721</text>
</g>
<g id="clust2" class="cluster" data-name="clusterIERC721TokenReceiver">

<path fill="rgb(47,63,87)" stroke="rgb(64,67,88)" stroke-dasharray="5,2" d="M495.96,-8C495.96,-8 667.73,-8 667.73,-8 673.73,-8 679.73,-14 679.73,-20 679.73,-20 679.73,-73 679.73,-73 679.73,-79 673.73,-85 667.73,-85 667.73,-85 495.96,-85 495.96,-85 489.96,-85 483.96,-79 483.96,-73 483.96,-73 483.96,-20 483.96,-20 483.96,-14 489.96,-8 495.96,-8" style=""/>
<text text-anchor="middle" x="581.85" y="-68.4" font-family="Times,serif" font-size="14.00" fill="#f0f0f0" style="">IERC721TokenReceiver</text>
</g>
<g id="clust3" class="cluster" data-name="cluster_01">

<polygon fill="rgb(46,62,86)" stroke="rgb(41,55,77)" points="45.22,-1230 45.22,-1359 382.89,-1359 382.89,-1230 45.22,-1230" style=""/>
<text text-anchor="middle" x="214.05" y="-1342.4" font-family="Times,serif" font-size="14.00" style="">Legend</text>
</g>
<!-- ERC721.justTransfer -->
<g id="node1" class="node" pointer-events="visible" data-name="ERC721.justTransfer">

<polygon fill="rgb(65,73,86)" stroke="rgb(44,75,94)" stroke-width="3" points="180.62,-331.54 180.62,-346.46 144.06,-357 92.37,-357 55.82,-346.46 55.82,-331.54 92.37,-321 144.06,-321 180.62,-331.54" style=""/>
<polygon fill="none" stroke="rgb(44,75,94)" stroke-width="3" points="184.61,-328.53 184.61,-349.47 144.63,-361 91.81,-361 51.82,-349.47 51.82,-328.53 91.81,-317 144.63,-317 184.61,-328.53" style=""/>
<text text-anchor="middle" x="118.22" y="-334.8" font-family="Times,serif" font-size="14.00" style="">justTransfer</text>
</g>
<!-- ERC721.Transfer -->
<g id="node23" class="node" pointer-events="visible" data-name="ERC721.Transfer">

<ellipse fill="rgb(65,73,86)" stroke="rgb(65,73,86)" stroke-width="3" cx="347.89" cy="-613" rx="43.99" ry="18" style=""/>
<text text-anchor="middle" x="347.89" y="-608.8" font-family="Times,serif" font-size="14.00" style="">Transfer</text>
</g>
<!-- ERC721.justTransfer&#45;&gt;ERC721.Transfer -->
<g id="edge1" class="edge" data-name="ERC721.justTransfer-&gt;ERC721.Transfer">

<path fill="none" stroke="rgb(44,75,94)" stroke-width="2" d="M184.89,-350.81C197.63,-355.29 210.19,-361.48 220.43,-370 288.53,-426.67 324.48,-529.54 339.01,-581.36" style=""/>
<polygon fill="rgb(44,75,94)" stroke="rgb(44,75,94)" stroke-width="2" points="335.56,-582 341.54,-590.75 342.32,-580.18 335.56,-582" style=""/>
</g>
<!-- ERC721.Approval -->
<g id="node24" class="node" pointer-events="visible" data-name="ERC721.Approval">

<ellipse fill="rgb(65,73,86)" stroke="rgb(65,73,86)" stroke-width="3" cx="347.89" cy="-339" rx="47.52" ry="18" style=""/>
<text text-anchor="middle" x="347.89" y="-334.8" font-family="Times,serif" font-size="14.00" style="">Approval</text>
</g>
<!-- ERC721.justTransfer&#45;&gt;ERC721.Approval -->
<g id="edge2" class="edge" data-name="ERC721.justTransfer-&gt;ERC721.Approval">

<path fill="none" stroke="rgb(44,75,94)" stroke-width="2" d="M185.99,-339C217.67,-339 255.27,-339 286.14,-339" style=""/>
<polygon fill="rgb(44,75,94)" stroke="rgb(44,75,94)" stroke-width="2" points="285.9,-342.5 295.9,-339 285.9,-335.5 285.9,-342.5" style=""/>
</g>
<!-- ERC721.&lt;Constructor&gt; -->
<g id="node2" class="node" pointer-events="visible" data-name="ERC721.&lt;Constructor&gt;">

<ellipse fill="rgb(66,70,92)" stroke="rgb(66,70,92)" stroke-width="3" cx="118.22" cy="-1171" rx="67.55" ry="18" style=""/>
<text text-anchor="middle" x="118.22" y="-1166.8" font-family="Times,serif" font-size="14.00" style="">&lt;Constructor&gt;</text>
</g>
<!-- ERC721.interfaceIdGenerator -->
<g id="node21" class="node" pointer-events="visible" data-name="ERC721.interfaceIdGenerator">

<ellipse fill="rgb(65,73,86)" stroke="rgb(65,73,86)" stroke-width="3" cx="347.89" cy="-1171" rx="91.41" ry="18" style=""/>
<text text-anchor="middle" x="347.89" y="-1166.8" font-family="Times,serif" font-size="14.00" style="">interfaceIdGenerator</text>
</g>
<!-- ERC721.&lt;Constructor&gt;&#45;&gt;ERC721.interfaceIdGenerator -->
<g id="edge3" class="edge" data-name="ERC721.&lt;Constructor&gt;-&gt;ERC721.interfaceIdGenerator">

<path fill="none" stroke="rgb(44,75,94)" stroke-width="2" d="M187.22,-1171C204.57,-1171 223.63,-1171 242.35,-1171" style=""/>
<polygon fill="rgb(44,75,94)" stroke="rgb(44,75,94)" stroke-width="2" points="242.21,-1174.5 252.21,-1171 242.21,-1167.5 242.21,-1174.5" style=""/>
</g>
<!-- ERC721.supportsInterface -->
<g id="node3" class="node" pointer-events="visible" data-name="ERC721.supportsInterface">

<ellipse fill="rgb(66,74,95)" stroke="rgb(66,74,95)" stroke-width="3" cx="118.22" cy="-1045" rx="78.14" ry="18" style=""/>
<text text-anchor="middle" x="118.22" y="-1040.8" font-family="Times,serif" font-size="14.00" style="">supportsInterface</text>
</g>
<!-- ERC721.name -->
<g id="node4" class="node" pointer-events="visible" data-name="ERC721.name">

<ellipse fill="rgb(66,74,95)" stroke="rgb(66,74,95)" stroke-width="3" cx="118.22" cy="-991" rx="31.9" ry="18" style=""/>
<text text-anchor="middle" x="118.22" y="-986.8" font-family="Times,serif" font-size="14.00" style="">name</text>
</g>
<!-- ERC721.symbol -->
<g id="node5" class="node" pointer-events="visible" data-name="ERC721.symbol">

<ellipse fill="rgb(66,74,95)" stroke="rgb(66,74,95)" stroke-width="3" cx="118.22" cy="-937" rx="39.45" ry="18" style=""/>
<text text-anchor="middle" x="118.22" y="-932.8" font-family="Times,serif" font-size="14.00" style="">symbol</text>
</g>
<!-- ERC721.mint -->
<g id="node6" class="node" pointer-events="visible" data-name="ERC721.mint">

<ellipse fill="rgb(66,74,95)" stroke="rgb(66,74,95)" stroke-width="3" cx="118.22" cy="-883" rx="28.99" ry="18" style=""/>
<text text-anchor="middle" x="118.22" y="-878.8" font-family="Times,serif" font-size="14.00" style="">mint</text>
</g>
<!-- ERC721.onERC721Received -->
<g id="node22" class="node" pointer-events="visible" data-name="ERC721.onERC721Received">

<ellipse fill="rgb(65,73,86)" stroke="rgb(65,73,86)" stroke-width="3" cx="347.89" cy="-883" rx="89.77" ry="18" style=""/>
<text text-anchor="middle" x="347.89" y="-878.8" font-family="Times,serif" font-size="14.00" style="">onERC721Received</text>
</g>
<!-- ERC721.mint&#45;&gt;ERC721.onERC721Received -->
<g id="edge5" class="edge" data-name="ERC721.mint-&gt;ERC721.onERC721Received">

<path fill="none" stroke="rgb(54,78,92)" stroke-width="2" d="M148.51,-883C172.9,-883 209.15,-883 244.01,-883" style=""/>
<polygon fill="rgb(54,78,92)" stroke="rgb(54,78,92)" stroke-width="2" points="243.74,-886.5 253.74,-883 243.74,-879.5 243.74,-886.5" style=""/>
</g>
<!-- ERC721.mint&#45;&gt;ERC721.Transfer -->
<g id="edge4" class="edge" data-name="ERC721.mint-&gt;ERC721.Transfer">

<path fill="none" stroke="rgb(44,75,94)" stroke-width="2" d="M148.2,-881.48C170.12,-878.97 199.86,-872.5 220.43,-856 289.72,-800.44 325.21,-696.63 339.34,-644.53" style=""/>
<polygon fill="rgb(44,75,94)" stroke="rgb(44,75,94)" stroke-width="2" points="342.67,-645.66 341.8,-635.1 335.89,-643.9 342.67,-645.66" style=""/>
</g>
<!-- ERC721.burn -->
<g id="node7" class="node" pointer-events="visible" data-name="ERC721.burn">

<ellipse fill="rgb(66,74,95)" stroke="rgb(66,74,95)" stroke-width="3" cx="118.22" cy="-829" rx="28.98" ry="18" style=""/>
<text text-anchor="middle" x="118.22" y="-824.8" font-family="Times,serif" font-size="14.00" style="">burn</text>
</g>
<!-- ERC721.burn&#45;&gt;ERC721.Transfer -->
<g id="edge6" class="edge" data-name="ERC721.burn-&gt;ERC721.Transfer">

<path fill="none" stroke="rgb(44,75,94)" stroke-width="2" d="M148.15,-826.77C169.77,-823.87 199.13,-817.24 220.43,-802 277.32,-761.31 316.04,-686.41 334.49,-644.15" style=""/>
<polygon fill="rgb(44,75,94)" stroke="rgb(44,75,94)" stroke-width="2" points="337.71,-645.52 338.38,-634.94 331.26,-642.79 337.71,-645.52" style=""/>
</g>
<!-- ERC721.totalSupply -->
<g id="node8" class="node" pointer-events="visible" data-name="ERC721.totalSupply">

<ellipse fill="rgb(66,74,95)" stroke="rgb(66,74,95)" stroke-width="3" cx="118.22" cy="-775" rx="55.64" ry="18" style=""/>
<text text-anchor="middle" x="118.22" y="-770.8" font-family="Times,serif" font-size="14.00" style="">totalSupply</text>
</g>
<!-- ERC721.tokenURI -->
<g id="node9" class="node" pointer-events="visible" data-name="ERC721.tokenURI">

<ellipse fill="rgb(66,74,95)" stroke="rgb(66,74,95)" stroke-width="3" cx="118.22" cy="-721" rx="49.24" ry="18" style=""/>
<text text-anchor="middle" x="118.22" y="-716.8" font-family="Times,serif" font-size="14.00" style="">tokenURI</text>
</g>
<!-- ERC721.tokenByIndex -->
<g id="node10" class="node" pointer-events="visible" data-name="ERC721.tokenByIndex">

<ellipse fill="rgb(66,74,95)" stroke="rgb(66,74,95)" stroke-width="3" cx="118.22" cy="-667" rx="66" ry="18" style=""/>
<text text-anchor="middle" x="118.22" y="-662.8" font-family="Times,serif" font-size="14.00" style="">tokenByIndex</text>
</g>
<!-- ERC721.balanceOf -->
<g id="node11" class="node" pointer-events="visible" data-name="ERC721.balanceOf">

<ellipse fill="rgb(66,74,95)" stroke="rgb(66,74,95)" stroke-width="3" cx="118.22" cy="-613" rx="50.92" ry="18" style=""/>
<text text-anchor="middle" x="118.22" y="-608.8" font-family="Times,serif" font-size="14.00" style="">balanceOf</text>
</g>
<!-- ERC721.tokenOfOwnerByIndex -->
<g id="node12" class="node" pointer-events="visible" data-name="ERC721.tokenOfOwnerByIndex">

<ellipse fill="rgb(66,74,95)" stroke="rgb(66,74,95)" stroke-width="3" cx="118.22" cy="-559" rx="102.43" ry="18" style=""/>
<text text-anchor="middle" x="118.22" y="-554.8" font-family="Times,serif" font-size="14.00" style="">tokenOfOwnerByIndex</text>
</g>
<!-- ERC721.ownerOf -->
<g id="node13" class="node" pointer-events="visible" data-name="ERC721.ownerOf">

<ellipse fill="rgb(66,74,95)" stroke="rgb(66,74,95)" stroke-width="3" cx="118.22" cy="-505" rx="45.22" ry="18" style=""/>
<text text-anchor="middle" x="118.22" y="-500.8" font-family="Times,serif" font-size="14.00" style="">ownerOf</text>
</g>
<!-- ERC721.collectionRename -->
<g id="node14" class="node" pointer-events="visible" data-name="ERC721.collectionRename">

<ellipse fill="rgb(66,74,95)" stroke="rgb(66,74,95)" stroke-width="3" cx="118.22" cy="-451" rx="80.51" ry="18" style=""/>
<text text-anchor="middle" x="118.22" y="-446.8" font-family="Times,serif" font-size="14.00" style="">collectionRename</text>
</g>
<!-- ERC721.safeTransferFrom -->
<g id="node15" class="node" pointer-events="visible" data-name="ERC721.safeTransferFrom">

<ellipse fill="rgb(66,74,95)" stroke="rgb(66,81,102)" stroke-width="3" cx="118.22" cy="-1099" rx="80.43" ry="18" style=""/>
<text text-anchor="middle" x="118.22" y="-1094.8" font-family="Times,serif" font-size="14.00" style="">safeTransferFrom</text>
</g>
<!-- ERC721.safeTransferFrom&#45;&gt;ERC721.safeTransferFrom -->
<g id="edge8" class="edge" data-name="ERC721.safeTransferFrom-&gt;ERC721.safeTransferFrom">

<path fill="none" stroke="rgb(54,78,92)" stroke-width="2" d="M77.84,-1115.66C68.87,-1125.62 82.33,-1135 118.22,-1135 137.28,-1135 150.02,-1132.35 156.42,-1128.38" style=""/>
<polygon fill="rgb(54,78,92)" stroke="rgb(54,78,92)" stroke-width="2" points="159.85,-1129.09 158.08,-1118.65 152.95,-1127.92 159.85,-1129.09" style=""/>
</g>
<!-- ERC721.safeTransferFrom&#45;&gt;ERC721.onERC721Received -->
<g id="edge7" class="edge" data-name="ERC721.safeTransferFrom-&gt;ERC721.onERC721Received">

<path fill="none" stroke="rgb(54,78,92)" stroke-width="2" d="M186.53,-1088.34C198.52,-1084.47 210.37,-1079.19 220.43,-1072 277.32,-1031.31 316.04,-956.41 334.49,-914.15" style=""/>
<polygon fill="rgb(54,78,92)" stroke="rgb(54,78,92)" stroke-width="2" points="337.71,-915.52 338.38,-904.94 331.26,-912.79 337.71,-915.52" style=""/>
</g>
<!-- ERC721.transferFrom -->
<g id="node16" class="node" pointer-events="visible" data-name="ERC721.transferFrom">

<ellipse fill="rgb(66,74,95)" stroke="rgb(66,81,102)" stroke-width="3" cx="118.22" cy="-397" rx="61.41" ry="18" style=""/>
<text text-anchor="middle" x="118.22" y="-392.8" font-family="Times,serif" font-size="14.00" style="">transferFrom</text>
</g>
<!-- ERC721.transferFrom&#45;&gt;ERC721.Transfer -->
<g id="edge9" class="edge" data-name="ERC721.transferFrom-&gt;ERC721.Transfer">

<path fill="none" stroke="rgb(44,75,94)" stroke-width="2" d="M175.96,-404.59C191.39,-408.59 207.42,-414.69 220.43,-424 277.32,-464.69 316.04,-539.59 334.49,-581.85" style=""/>
<polygon fill="rgb(44,75,94)" stroke="rgb(44,75,94)" stroke-width="2" points="331.26,-583.21 338.38,-591.06 337.71,-580.48 331.26,-583.21" style=""/>
</g>
<!-- ERC721.transferFrom&#45;&gt;ERC721.Approval -->
<g id="edge10" class="edge" data-name="ERC721.transferFrom-&gt;ERC721.Approval">

<path fill="none" stroke="rgb(44,75,94)" stroke-width="2" d="M166.94,-384.84C204.08,-375.38 255.58,-362.26 293.97,-352.48" style=""/>
<polygon fill="rgb(44,75,94)" stroke="rgb(44,75,94)" stroke-width="2" points="294.69,-355.91 303.52,-350.05 292.97,-349.13 294.69,-355.91" style=""/>
</g>
<!-- ERC721.approve -->
<g id="node17" class="node" pointer-events="visible" data-name="ERC721.approve">

<ellipse fill="rgb(66,74,95)" stroke="rgb(66,81,102)" stroke-width="3" cx="118.22" cy="-281" rx="42.28" ry="18" style=""/>
<text text-anchor="middle" x="118.22" y="-276.8" font-family="Times,serif" font-size="14.00" style="">approve</text>
</g>
<!-- ERC721.approve&#45;&gt;ERC721.Approval -->
<g id="edge11" class="edge" data-name="ERC721.approve-&gt;ERC721.Approval">

<path fill="none" stroke="rgb(44,75,94)" stroke-width="2" d="M156.3,-290.45C193.64,-299.96 251.61,-314.73 293.81,-325.48" style=""/>
<polygon fill="rgb(44,75,94)" stroke="rgb(44,75,94)" stroke-width="2" points="292.87,-328.85 303.43,-327.93 294.6,-322.07 292.87,-328.85" style=""/>
</g>
<!-- ERC721.setApprovalForAll -->
<g id="node18" class="node" pointer-events="visible" data-name="ERC721.setApprovalForAll">

<ellipse fill="rgb(66,74,95)" stroke="rgb(66,74,95)" stroke-width="3" cx="118.22" cy="-227" rx="83.98" ry="18" style=""/>
<text text-anchor="middle" x="118.22" y="-222.8" font-family="Times,serif" font-size="14.00" style="">setApprovalForAll</text>
</g>
<!-- ERC721.ApprovalForAll -->
<g id="node25" class="node" pointer-events="visible" data-name="ERC721.ApprovalForAll">

<ellipse fill="rgb(65,73,86)" stroke="rgb(65,73,86)" stroke-width="3" cx="347.89" cy="-227" rx="73.03" ry="18" style=""/>
<text text-anchor="middle" x="347.89" y="-222.8" font-family="Times,serif" font-size="14.00" style="">ApprovalForAll</text>
</g>
<!-- ERC721.setApprovalForAll&#45;&gt;ERC721.ApprovalForAll -->
<g id="edge12" class="edge" data-name="ERC721.setApprovalForAll-&gt;ERC721.ApprovalForAll">

<path fill="none" stroke="rgb(44,75,94)" stroke-width="2" d="M203.67,-227C222.19,-227 241.83,-227 260.42,-227" style=""/>
<polygon fill="rgb(44,75,94)" stroke="rgb(44,75,94)" stroke-width="2" points="260.4,-230.5 270.4,-227 260.4,-223.5 260.4,-230.5" style=""/>
</g>
<!-- ERC721.getApproved -->
<g id="node19" class="node" pointer-events="visible" data-name="ERC721.getApproved">

<ellipse fill="rgb(66,74,95)" stroke="rgb(66,74,95)" stroke-width="3" cx="118.22" cy="-173" rx="61.41" ry="18" style=""/>
<text text-anchor="middle" x="118.22" y="-168.8" font-family="Times,serif" font-size="14.00" style="">getApproved</text>
</g>
<!-- ERC721.isApprovedForAll -->
<g id="node20" class="node" pointer-events="visible" data-name="ERC721.isApprovedForAll">

<ellipse fill="rgb(66,74,95)" stroke="rgb(66,74,95)" stroke-width="3" cx="118.22" cy="-119" rx="81.7" ry="18" style=""/>
<text text-anchor="middle" x="118.22" y="-114.8" font-family="Times,serif" font-size="14.00" style="">isApprovedForAll</text>
</g>
<!-- ERC721.IERC721TokenReceiver -->
<g id="node26" class="node" pointer-events="visible" data-name="ERC721.IERC721TokenReceiver">

<ellipse fill="rgb(65,73,86)" stroke="rgb(65,73,86)" stroke-width="3" cx="581.85" cy="-883" rx="106.51" ry="18" style=""/>
<text text-anchor="middle" x="581.85" y="-878.8" font-family="Times,serif" font-size="14.00" style="">IERC721TokenReceiver</text>
</g>
<!-- ERC721.onERC721Received&#45;&gt;ERC721.IERC721TokenReceiver -->
<g id="edge13" class="edge" data-name="ERC721.onERC721Received-&gt;ERC721.IERC721TokenReceiver">

<path fill="none" stroke="rgb(44,75,94)" stroke-width="2" d="M438.9,-883C446.15,-883 453.55,-883 460.97,-883" style=""/>
<polygon fill="rgb(44,75,94)" stroke="rgb(44,75,94)" stroke-width="2" points="460.85,-886.5 470.85,-883 460.85,-879.5 460.85,-886.5" style=""/>
</g>
<!-- IERC721TokenReceiver.onERC721Received -->
<g id="node27" class="node" pointer-events="visible" data-name="IERC721TokenReceiver.onERC721Received">

<ellipse fill="rgb(65,73,86)" stroke="rgb(65,73,86)" stroke-width="3" cx="581.85" cy="-34" rx="89.77" ry="18" style=""/>
<text text-anchor="middle" x="581.85" y="-29.8" font-family="Times,serif" font-size="14.00" style="">onERC721Received</text>
</g>
<!-- ERC721.onERC721Received&#45;&gt;IERC721TokenReceiver.onERC721Received -->
<g id="edge14" class="edge" data-name="ERC721.onERC721Received-&gt;IERC721TokenReceiver.onERC721Received">

<path fill="none" stroke="rgb(66,81,102)" stroke-width="2" d="M358.28,-863.74C377.45,-823.38 420.84,-726.5 439.34,-640 465.02,-520.01 408.33,-191.79 475.34,-89 485.01,-74.17 500.03,-63.11 515.73,-54.95" style=""/>
<polygon fill="rgb(66,81,102)" stroke="rgb(66,81,102)" stroke-width="2" points="516.95,-58.25 524.49,-50.8 513.95,-51.92 516.95,-58.25" style=""/>
</g>
<!-- key -->
<g id="node28" class="node" pointer-events="visible" data-name="key">

<polygon fill="rgb(65,73,86)" stroke="none" stroke-width="3" points="183.22,-1326 53.22,-1326 53.22,-1238 183.22,-1238 183.22,-1326" style=""/>
<text text-anchor="start" x="102.85" y="-1307.4" font-family="Times,serif" font-size="14.00" style="">Internal Call</text>
<text text-anchor="start" x="98.96" y="-1287.4" font-family="Times,serif" font-size="14.00" style="">External Call</text>
<text text-anchor="start" x="76.42" y="-1267.4" font-family="Times,serif" font-size="14.00" style="">Defined Contract</text>
<text text-anchor="start" x="62.82" y="-1247.4" font-family="Times,serif" font-size="14.00" style="">Undefined Contract</text>
</g>
<!-- key2 -->
<g id="node29" class="node" pointer-events="visible" data-name="key2">

<polygon fill="rgb(65,73,86)" stroke="none" stroke-width="3" points="374.89,-1326 320.89,-1326 320.89,-1238 374.89,-1238 374.89,-1326" style=""/>
<text text-anchor="start" x="337.89" y="-1307.4" font-family="Times,serif" font-size="14.00" style="">   </text>
<text text-anchor="start" x="337.89" y="-1287.4" font-family="Times,serif" font-size="14.00" style="">   </text>
<polygon fill="rgb(48,64,88)" stroke="none" points="335.89,-1262 335.89,-1282 360.89,-1282 360.89,-1262 335.89,-1262" style=""/>
<text text-anchor="start" x="337.89" y="-1267.4" font-family="Times,serif" font-size="14.00" style="">   </text>
<polygon fill="none" stroke="rgb(64,67,88)" points="337.89,-1244 337.89,-1260 358.89,-1260 358.89,-1244 337.89,-1244" style=""/>
</g>
<!-- key&#45;&gt;key2 -->
<g id="edge15" class="edge" data-name="key-&gt;key2">

<path fill="none" stroke="rgb(44,75,94)" stroke-width="2" d="M176.22,-1312C242.19,-1312 261.88,-1312 321.88,-1312" style=""/>
<polygon fill="rgb(44,75,94)" stroke="rgb(44,75,94)" stroke-width="2" points="321.86,-1315.5 331.86,-1312 321.86,-1308.5 321.86,-1315.5" style=""/>
</g>
<!-- key&#45;&gt;key2 -->
<g id="edge16" class="edge" data-name="key-&gt;key2">

<path fill="none" stroke="rgb(66,81,102)" stroke-width="2" d="M176.22,-1292C242.19,-1292 261.88,-1292 321.88,-1292" style=""/>
<polygon fill="rgb(66,81,102)" stroke="rgb(66,81,102)" stroke-width="2" points="321.86,-1295.5 331.86,-1292 321.86,-1288.5 321.86,-1295.5" style=""/>
</g>
</g>
</svg>